PathFileType	4	(X/Y/Z)	RBDS015static.trc
DataRate	CameraRate	NumFrames	NumMarkers	Units	OrigDataRate	OrigDataStartFrame	OrigNumFrames
150.000000	150.000000	4	48	mm	150.000000	56	150
Frame#	Time	L.Ankle			L.Ankle.Medial			L.ASIS			L.GTR			L.Heel.Bottom			L.Heel.Lateral			L.Heel.Top			L.HF			L.Iliac.Crest			L.Knee			L.Knee.Medial			L.MT1			L.MT2			L.MT5			L.PSIS			L.Shank.Bottom.Lateral			L.Shank.Bottom.Medial			L.Shank.Top.Lateral			L.Shank.Top.Medial			L.Thigh.Bottom.Lateral			L.Thigh.Bottom.Medial			L.Thigh.Top.Lateral			L.Thigh.Top.Medial			L.TT			R.Ankle			R.Ankle.Medial			R.ASIS			R.GTR			R.Heel.Bottom			R.Heel.Lateral			R.Heel.Top			R.HF			R.Iliac.Crest			R.Knee			R.Knee.Medial			R.MT1			R.MT2			R.MT5			R.PSIS			R.Shank.Bottom.Lateral			R.Shank.Bottom.Medial			R.Shank.Top.Lateral			R.Shank.Top.Medial			R.Thigh.Bottom.Lateral			R.Thigh.Bottom.Medial			R.Thigh.Top.Lateral			R.Thigh.Top.Medial			R.TT			
		X1	Y1	Z1	X2	Y2	Z2	X3	Y3	Z3	X4	Y4	Z4	X5	Y5	Z5	X6	Y6	Z6	X7	Y7	Z7	X8	Y8	Z8	X9	Y9	Z9	X10	Y10	Z10	X11	Y11	Z11	X12	Y12	Z12	X13	Y13	Z13	X14	Y14	Z14	X15	Y15	Z15	X16	Y16	Z16	X17	Y17	Z17	X18	Y18	Z18	X19	Y19	Z19	X20	Y20	Z20	X21	Y21	Z21	X22	Y22	Z22	X23	Y23	Z23	X24	Y24	Z24	X25	Y25	Z25	X26	Y26	Z26	X27	Y27	Z27	X28	Y28	Z28	X29	Y29	Z29	X30	Y30	Z30	X31	Y31	Z31	X32	Y32	Z32	X33	Y33	Z33	X34	Y34	Z34	X35	Y35	Z35	X36	Y36	Z36	X37	Y37	Z37	X38	Y38	Z38	X39	Y39	Z39	X40	Y40	Z40	X41	Y41	Z41	X42	Y42	Z42	X43	Y43	Z43	X44	Y44	Z44	X45	Y45	Z45	X46	Y46	Z46	X47	Y47	Z47	X48	Y48	Z48	

57	0.3733333333333334	699.7469482421875	107.6160430908203	1032.686645507813	714.735595703125	118.2812042236328	1120.839477539063	813.7910766601563	1081.53466796875	1094.931640625	727.1580200195313	988.7928466796875	1049.263671875	636.968994140625	39.93135833740234	1081.423828125	661.209228515625	58.32133483886719	1040.400512695313	642.7979125976563	82.37786865234375	1082.305786132813	695.7241821289063	511.5714416503906	1055.402587890625	733.3246459960938	1158.488403320313	1062.225219726563	696.1392211914063	571.3302612304688	1061.567993164063	701.4561767578125	556.136474609375	1190.349975585938	843.8814086914063	61.18033218383789	1125.638671875	853.1246948242188	70.78033447265625	1079.517211914063	817.39501953125	48.57056045532227	1013.111999511719	639.6587524414063	1121.67333984375	1178.812866210938	692.0279541015625	210.9937591552734	1033.34716796875	648.7586669921875	205.0164184570313	1060.471313476563	682.89599609375	291.3029174804688	1028.369140625	638.1099243164063	288.8688659667969	1057.206420898438	714.2100219726563	704.58984375	1041.108764648438	654.010009765625	703.7086181640625	1073.080322265625	709.82470703125	814.9636840820313	1035.776611328125	648.289306640625	813.7330932617188	1074.7890625	753.4382934570313	476.7422180175781	1102.810913085938	692.350830078125	114.8412246704102	1412.833984375	716.7598876953125	117.7220153808594	1326.763061523438	834.0262451171875	1075.0009765625	1323.161376953125	754.8822631835938	989.443603515625	1381.489013671875	633.00537109375	41.07697677612305	1370.233764648438	660.6769409179688	61.74069976806641	1411.366943359375	641.481689453125	87.73237609863281	1370.386962890625	715.9926147460938	511.3605651855469	1376.505249023438	753.3270874023438	1157.83544921875	1368.702392578125	717.6817016601563	576.7691650390625	1368.9677734375	732.7262573242188	550.8409423828125	1242.713623046875	843.1005249023438	59.64238357543945	1326.549072265625	851.2073974609375	72.88615417480469	1375.485107421875	808.2645874023438	50.09410858154297	1441.296630859375	645.817138671875	1121.451416015625	1270.317016601563	701.6639404296875	208.8487091064453	1409.010986328125	653.52783203125	205.9548797607422	1381.363525390625	694.4755859375	290.1102905273438	1410.401733398438	648.6657104492188	286.3484802246094	1382.366088867188	730.5233764648438	725.5210571289063	1388.042236328125	667.6467895507813	721.9072265625	1349.594360351563	718.2581787109375	834.8101806640625	1390.969360351563	660.2757568359375	831.583740234375	1351.948486328125	777.0101928710938	486.501953125	1330.595336914063	
58	0.38	699.7471313476563	107.6366577148438	1032.682861328125	714.731201171875	118.2827987670898	1120.849243164063	813.8309936523438	1081.539428710938	1094.932739257813	727.19189453125	988.795654296875	1049.2734375	636.96337890625	39.93764114379883	1081.41650390625	661.2265625	58.31752777099609	1040.398559570313	642.80126953125	82.38436889648438	1082.296508789063	695.7373657226563	511.57080078125	1055.39453125	733.36962890625	1158.48779296875	1062.22412109375	696.1658325195313	571.3342895507813	1061.576782226563	701.4888305664063	556.129150390625	1190.357177734375	843.8780517578125	61.18965148925781	1125.642944335938	853.1245727539063	70.78629302978516	1079.511108398438	817.3978881835938	48.57051086425781	1013.114868164063	639.6944580078125	1121.679931640625	1178.830078125	692.0274047851563	210.9915924072266	1033.344482421875	648.7666015625	205.0127868652344	1060.474731445313	682.8991088867188	291.3008728027344	1028.3701171875	638.114013671875	288.8703918457031	1057.213134765625	714.2201538085938	704.6015014648438	1041.123657226563	654.0283203125	703.7134399414063	1073.083374023438	709.8475341796875	814.9738159179688	1035.7822265625	648.3685913085938	813.6871337890625	1074.82861328125	753.4475708007813	476.7362670898438	1102.8037109375	692.3554077148438	114.8362274169922	1412.83203125	716.7536010742188	117.7234573364258	1326.758911132813	834.0715942382813	1075.002319335938	1323.166381835938	754.9384155273438	989.4404907226563	1381.490844726563	633.0062866210938	41.08099365234375	1370.242553710938	660.6820068359375	61.74183654785156	1411.369384765625	641.47705078125	87.73369598388672	1370.390991210938	715.9745483398438	511.3079223632813	1376.247436523438	753.3639526367188	1157.835083007813	1368.71337890625	717.708984375	576.7754516601563	1368.972045898438	732.7365112304688	550.8357543945313	1242.717529296875	843.0975952148438	59.64383316040039	1326.547729492188	851.2041625976563	72.89549255371094	1375.494384765625	808.265380859375	50.1014518737793	1441.29443359375	645.8677978515625	1121.466796875	1270.335693359375	701.671875	208.8506011962891	1409.019775390625	653.5385131835938	205.9556274414063	1381.370727539063	694.4866943359375	290.1079711914063	1410.404907226563	648.6770629882813	286.3482666015625	1382.365356445313	730.5582275390625	725.5166015625	1388.049194335938	667.6781616210938	721.9093017578125	1349.604125976563	718.3031005859375	834.806640625	1390.977783203125	660.3074951171875	831.5877685546875	1351.965942382813	777.03271484375	486.5055541992188	1330.591064453125	
59	0.3866666666666667	699.7429809570313	107.6247787475586	1032.685302734375	714.72900390625	118.2798767089844	1120.851806640625	813.8690185546875	1081.534912109375	1094.934814453125	727.2179565429688	988.7889404296875	1049.27490234375	636.967041015625	39.94091796875	1081.407470703125	661.2003784179688	58.3252067565918	1040.393432617188	642.8045043945313	82.38043212890625	1082.3017578125	695.7400512695313	511.5808715820313	1055.402221679688	733.4078369140625	1158.47802734375	1062.23193359375	696.1697387695313	571.3311157226563	1061.584228515625	701.4915161132813	556.1282348632813	1190.359619140625	843.886474609375	61.18799591064453	1125.637939453125	853.1196899414063	70.78623962402344	1079.5166015625	817.3956298828125	48.56682968139648	1013.109985351563	639.7424926757813	1121.682250976563	1178.82958984375	692.0271606445313	210.9921722412109	1033.352416992188	648.75927734375	205.0222778320313	1060.475708007813	682.907470703125	291.3100280761719	1028.37109375	638.1177368164063	288.87158203125	1057.217163085938	714.2372436523438	704.595703125	1041.130737304688	654.0557861328125	703.712646484375	1073.096069335938	709.8607177734375	814.968994140625	1035.789794921875	648.3878173828125	813.6942138671875	1074.843017578125	753.4662475585938	476.7460327148438	1102.807983398438	692.3582153320313	114.8401107788086	1412.837524414063	716.7454833984375	117.7271575927734	1326.750244140625	834.1239624023438	1075.007934570313	1323.168334960938	754.972412109375	989.4429321289063	1381.503784179688	633.0051879882813	41.07615661621094	1370.233276367188	660.676513671875	61.73965072631836	1411.363891601563	641.4767456054688	87.73202514648438	1370.38671875	715.9851684570313	511.3075256347656	1376.245849609375	753.403076171875	1157.833251953125	1368.719116210938	717.7280883789063	576.7739868164063	1368.97119140625	732.7675170898438	550.83544921875	1242.724975585938	843.100830078125	59.6446418762207	1326.544067382813	851.2053833007813	72.89491271972656	1375.490478515625	808.2642822265625	50.09955215454102	1441.294677734375	645.912353515625	1121.4677734375	1270.339599609375	701.6812133789063	208.84375	1409.01513671875	653.5384521484375	205.9572906494141	1381.376953125	694.5004272460938	290.1054077148438	1410.408325195313	648.6829833984375	286.3475952148438	1382.369262695313	730.592529296875	725.519287109375	1388.045654296875	667.7167358398438	721.9082641601563	1349.604248046875	718.3355712890625	834.805908203125	1390.98388671875	660.3316650390625	831.5897216796875	1351.966064453125	777.0486450195313	486.4974365234375	1330.584228515625	
60	0.3933333333333334	699.7545166015625	107.6217346191406	1032.686157226563	714.7429809570313	118.2819290161133	1120.83837890625	813.906494140625	1081.520141601563	1094.930053710938	727.23828125	988.7843627929688	1049.2880859375	636.9689331054688	39.93802642822266	1081.404296875	661.2161254882813	58.31852722167969	1040.40185546875	642.8056640625	82.38005065917969	1082.299072265625	695.7579345703125	511.5680541992188	1055.411987304688	733.4444580078125	1158.48681640625	1062.240234375	696.1898803710938	571.3242797851563	1061.582641601563	701.5157470703125	556.1223754882813	1190.35986328125	843.8809204101563	61.1893310546875	1125.643432617188	853.1212158203125	70.78443145751953	1079.513916015625	817.3983154296875	48.56953430175781	1013.10498046875	639.7794189453125	1121.693603515625	1178.845092773438	692.0291748046875	210.9945983886719	1033.3544921875	648.7659912109375	205.0237731933594	1060.480346679688	682.9132080078125	291.307373046875	1028.375610351563	638.125	288.8763122558594	1057.22607421875	714.2536010742188	704.5936279296875	1041.130249023438	654.0703125	703.7173461914063	1073.094970703125	709.874755859375	814.9730224609375	1035.786865234375	648.4088745117188	813.6928100585938	1074.839965820313	753.4647827148438	476.7315979003906	1102.81640625	692.3651123046875	114.8334808349609	1412.8349609375	716.7546997070313	117.7161636352539	1326.763305664063	834.1741943359375	1074.992919921875	1323.172119140625	755.0096435546875	989.4376831054688	1381.505981445313	633.0060424804688	41.08026123046875	1370.235107421875	660.670166015625	61.73956680297852	1411.3720703125	641.485107421875	87.73099517822266	1370.390014648438	716.0053100585938	511.3049011230469	1376.247436523438	753.4328002929688	1157.82568359375	1368.72216796875	717.7499389648438	576.7720336914063	1368.984130859375	732.7963256835938	550.8297119140625	1242.736083984375	843.1047973632813	59.6407470703125	1326.548828125	851.2092895507813	72.88959503173828	1375.49462890625	808.265869140625	50.09735870361328	1441.2890625	645.95751953125	1121.474975585938	1270.345092773438	701.6837768554688	208.8458557128906	1409.011352539063	653.5442504882813	205.9613189697266	1381.388671875	694.5053100585938	290.1049194335938	1410.408813476563	648.6961059570313	286.3457641601563	1382.376953125	730.6231079101563	725.5205688476563	1388.046752929688	667.7471313476563	721.9029541015625	1349.611083984375	718.3712158203125	834.803955078125	1390.991088867188	660.3602294921875	831.5974731445313	1351.967407226563	777.057373046875	486.50244140625	1330.576904296875	
